<?xml version="1.0" encoding="UTF-8" standalone="no"?>
<!-- Created with Inkscape (http://www.inkscape.org/) -->

<svg
   width="168.40146mm"
   height="147.78679mm"
   viewBox="0 0 636.47797 558.56425"
   version="1.1"
   id="svg1"
   xml:space="preserve"
   inkscape:version="1.4.3 (0d15f75042, 2025-12-25)"
   sodipodi:docname="apachetaLogoDrawing.svg"
   xmlns:inkscape="http://www.inkscape.org/namespaces/inkscape"
   xmlns:sodipodi="http://sodipodi.sourceforge.net/DTD/sodipodi-0.dtd"
   xmlns="http://www.w3.org/2000/svg"
   xmlns:svg="http://www.w3.org/2000/svg"><sodipodi:namedview
     id="namedview1"
     pagecolor="#ffffff"
     bordercolor="#000000"
     borderopacity="0.25"
     inkscape:showpageshadow="2"
     inkscape:pageopacity="0.0"
     inkscape:pagecheckerboard="0"
     inkscape:deskcolor="#d1d1d1"
     inkscape:document-units="mm"
     inkscape:zoom="0.50646226"
     inkscape:cx="282.35075"
     inkscape:cy="418.58993"
     inkscape:window-width="1920"
     inkscape:window-height="1048"
     inkscape:window-x="0"
     inkscape:window-y="0"
     inkscape:window-maximized="1"
     inkscape:current-layer="layer1"><inkscape:page
       x="0"
       y="-3.1788396e-20"
       width="636.47797"
       height="558.56427"
       id="page2"
       margin="0"
       bleed="0" /></sodipodi:namedview><defs
     id="defs1" /><g
     inkscape:label="Layer 1"
     inkscape:groupmode="layer"
     id="layer1"
     transform="translate(-74.249505,-35.581709)"><path
       style="fill:#000000"
       d="m 214.10654,593.46625 c -26.68375,-2.45942 -52.40269,-7.73622 -63.62657,-13.05439 -3.36961,-1.5966 -7.75711,-4.70774 -9.75,-6.91363 -3.09864,-3.42983 -3.62343,-4.70223 -3.62343,-8.78532 0,-2.79838 0.67588,-5.73956 1.63293,-7.10595 2.12925,-3.03992 1.04878,-3.7021 -7.52871,-4.61408 -22.66386,-2.40967 -44.310612,-12.87141 -52.123422,-25.19092 -9.34259,-14.73174 -4.99486,-33.38051 11.66677,-50.04237 22.020582,-22.02089 56.009862,-35.36017 88.852432,-34.87064 l 7,0.10433 -9.57076,-9.5 c -10.36405,-10.28743 -14.07553,-16.3425 -16.03932,-26.16722 -4.32416,-21.63352 14.0905,-45.37537 49.07302,-63.26937 18.92239,-9.67903 46.08074,-18.69551 65.01661,-21.58528 9.41951,-1.43749 9.50832,-1.32862 -4.47955,-5.49157 -19.38555,-5.76937 -34.05031,-16.27963 -40.53182,-29.04924 -2.87227,-5.65883 -3.36958,-7.65625 -3.31094,-13.29817 0.0946,-9.09932 2.95993,-14.99187 11.27539,-23.18771 4.8512,-4.78142 9.33232,-7.92904 16.60576,-11.66422 9.22815,-4.73899 31.01198,-12.23167 44.46161,-15.29283 8.04937,-1.83205 9.18311,-2.70493 4.47072,-3.44206 -18.43572,-2.88376 -28.72409,-9.2252 -34.97258,-21.556 -2.03727,-4.02034 -2.49814,-6.38709 -2.49814,-12.82873 0,-7.04188 0.38326,-8.66498 3.53249,-14.95992 6.94309,-13.87841 26.43495,-28.45791 46.31028,-34.63909 9.10956,-2.83306 31.34185,-7.56859 35.53287,-7.56859 3.89548,0 3.17757,-1.67363 -1.05883,-2.46838 -10.15118,-1.90438 -22.54541,-11.12794 -26.05821,-19.39205 -10.76814,-25.332773 29.4848,-59.065423 83.7414,-70.176723 13.65503,-2.79643 36.1829,-2.40525 45.02247,0.78179 26.54775,9.57158 39.53899,30.32252 33.49966,53.50907 -2.54393,9.766803 -5.56811,14.926213 -13.1862,22.496293 l -7.29598,7.25 7.73003,0.006 c 15.58938,0.0119 32.95345,3.77984 44.58781,9.67541 6.66342,3.37661 15.67206,12.08895 18.64993,18.03651 3.1731,6.3375 3.28993,15.98761 0.26369,21.78218 -4.82847,9.24548 -17.12995,17.77115 -34.77141,24.0987 l -5,1.79337 4,0.88666 c 20.3631,4.51378 29.80414,9.01508 39.94829,19.04656 8.43077,8.33713 12.83731,16.53925 15.25504,28.39501 5.00008,24.5187 -10.14225,48.01337 -40.27496,62.49019 l -8.92837,4.28951 8,0.71695 c 40.48314,3.62803 55.29762,8.62317 70.53525,23.78305 10.74524,10.69043 14.96475,20.3114 14.96475,34.12142 0,15.85252 -7.70362,27.1134 -24.19665,35.36984 -4.94418,2.47506 -8.38505,4.69797 -7.64639,4.93978 0.73867,0.24182 5.32862,1.62289 10.19988,3.06905 12.86261,3.8186 25.17079,9.34749 61.64316,27.69041 39.23955,19.73462 47.16762,25.19068 58.44515,40.22172 5.57312,7.42802 8.25798,13.4231 10.11432,22.58452 2.64646,13.06081 0.3855,23.57316 -7.2452,33.6867 -14.84189,19.67107 -47.37764,32.14217 -98.67022,37.82076 -65.16821,7.21474 -173.47845,1.01264 -244.22833,-13.9851 -19.69311,-4.17459 -28.89108,-8.05652 -35.13207,-14.8272 -2.19958,-2.38626 -4.18329,-4.89081 -4.40825,-5.56567 -0.29893,-0.89681 -2.75194,-0.47339 -9.11516,1.57338 -4.78838,1.54022 -8.71833,3.04087 -8.7332,3.33479 -0.0149,0.29391 1.43546,1.39634 3.22296,2.44984 5.19894,3.06411 12.76508,10.62613 14.9993,14.99115 7.33505,14.33058 -2.38256,23.24273 -30.69172,28.14779 -10.68334,1.85108 -60.46922,2.74047 -75.55758,1.34979 z m 69.94371,-14.4939 c 11.84343,-1.68323 20.64851,-3.94898 23.49303,-6.04532 1.8288,-1.34778 1.84772,-1.61401 0.33952,-4.77673 -5.43291,-11.39294 -30.29253,-23.62578 -58.49389,-28.78348 -35.1837,-6.43468 -76.64037,1.54661 -94.41767,18.17742 -2.67559,2.50303 -4.8647,5.09715 -4.8647,5.7647 0,5.04239 26.47806,12.26733 57.27172,15.62747 17.40736,1.89945 63.40833,1.92101 76.67199,0.0359 z m 312.05629,-15.8861 c 55.62837,-5.78107 89.36249,-19.14414 98.6441,-39.07578 4.53224,-9.7327 2.66564,-23.79917 -4.59214,-34.60574 -4.71212,-7.01618 -15.88462,-17.67311 -24.62541,-23.48903 -9.5348,-6.34424 -55.66307,-29.12768 -72.51276,-35.81514 -25.56062,-10.14474 -51.49379,-14.69201 -84.41379,-14.80161 -28.85898,-0.0961 -46.13664,2.3689 -68.69839,9.80108 -10.06415,3.31529 -15.80161,6.38019 -15.80161,8.44108 0,0.52379 0.94754,0.54242 2.25745,0.0444 5.1289,-1.95001 29.15276,-6.35658 41.74255,-7.65663 14.55202,-1.50267 37.25221,-1.78675 40.5,-0.50684 2.5182,0.9924 1.89139,1.13022 -21,4.61715 -21.75049,3.31314 -53.7261,11.07449 -70.14483,17.02607 -15.76855,5.71588 -36.78143,16.14221 -49.38391,24.50367 -12.01971,7.9748 -26.45462,22.25547 -31.26288,30.92883 -6.1534,11.09977 -8.36894,24.0855 -5.34436,31.32434 1.53984,3.68535 6.62339,8.34032 11.20538,10.26069 15.36331,6.43895 106.74012,18.8575 152.9306,20.784 21.3747,0.89149 85.76582,-0.24931 100.5,-1.78053 z M 484.88135,552.41102 c -24.69204,-1.08123 -70.26201,-6.5276 -74.70906,-8.92898 -3.11897,-1.68422 19.65356,-2.18911 49.79426,-1.104 28.40435,1.0226 85.19062,5.10863 94.09919,6.77087 3.36776,0.62839 3.3942,0.66951 1,1.55557 -1.97976,0.73268 -47.78485,3.05077 -51.4592,2.60423 -0.55,-0.0668 -8.97634,-0.4708 -18.72519,-0.89769 z m 126.72519,-24.04369 c -12.57334,-0.71548 -17.57597,-1.6924 -15.27125,-2.98219 1.5608,-0.87347 44.67607,-8.5535 55.77125,-9.93441 6.43359,-0.80073 11,-0.39992 11,0.96551 0,1.11712 -13.93966,7.71394 -20,9.46483 -8.06149,2.32903 -19.03808,3.1954 -31.5,2.48626 z M 165.344,536.98729 c 28.44954,-11.6992 67.04483,-13.16335 103.1337,-3.91247 8.50599,2.18039 11.4106,2.49556 18.12884,1.96714 9.79972,-0.7708 19.6384,-2.96798 25.10727,-5.60696 4.05824,-1.95829 4.11451,-2.05944 4.71351,-8.47403 0.33344,-3.57065 1.14429,-8.28792 1.8019,-10.48284 2.52747,-8.43593 -1.89736,-11.91189 -24.12268,-18.94978 -10.91153,-3.45526 -22.76587,-8.2075 -35,-14.031 -22.91533,-10.90782 -23.92041,-11.33479 -37.78668,-16.0523 -26.25378,-8.93194 -51.28877,-9.04223 -77.95324,-0.34343 -22.61133,7.37654 -45.047741,23.66481 -52.129542,37.84473 -1.28213,2.56721 -2.57086,7.31133 -2.86385,10.54248 -0.46196,5.09459 -0.18441,6.46914 2.08989,10.34994 4.83791,8.25526 19.363652,15.66877 36.643422,18.70171 6.94624,1.2192 26.83746,2.85714 28.5,2.34683 0.55,-0.16882 4.93186,-1.92383 9.73746,-3.90002 z m 168.06808,-52.92937 6.60836,-8.43537 -7.20695,3.85102 c -3.96382,2.11806 -9.11945,4.41021 -11.45695,5.09365 -5.02482,1.46918 -5.28276,2.25564 -1.28316,3.91233 1.63176,0.6759 3.48687,1.85549 4.12245,2.62132 0.63558,0.76583 1.48236,1.39241 1.88174,1.39241 0.39937,0 3.6999,-3.79591 7.33451,-8.43536 z m -24.09758,-6.34379 c 3.68939,-1.49647 6.72689,-3.05835 6.75,-3.47085 0.0231,-0.4125 -0.18296,-0.75 -0.45796,-0.75 -0.275,0 -7.475,0 -16,0 -8.73496,0 -15.5,0.40036 -15.5,0.9173 0,1.31223 12.76834,5.79118 17,5.96336 0.825,0.0336 4.51858,-1.16335 8.20796,-2.65981 z m 35.29204,-6.22085 c 0.33991,-0.55 0.14147,-1 -0.44099,-1 -0.58246,0 -1.05901,0.45 -1.05901,1 0,0.55 0.19844,1 0.44098,1 0.24254,0 0.7191,-0.45 1.05902,-1 z m -20.80122,-12.53467 c 14.33159,-1.86374 24.83092,-4.267 41.30122,-9.4537 21.97098,-6.91893 38.52438,-16.22551 50.55535,-28.423 8.89748,-9.02063 11.77706,-14.72066 12.2809,-24.30961 0.33772,-6.42742 0.0381,-7.95033 -2.72624,-13.85762 -7.25126,-15.49558 -27.98676,-29.41199 -62.11001,-41.68447 -23.44443,-8.43182 -44.73922,-12.33139 -61.46743,-11.25611 -52.04567,3.34547 -111.55895,31.98149 -124.66295,59.9841 -2.61849,5.59558 -3.03801,7.5215 -2.68649,12.33308 0.24058,3.29302 1.44124,7.74935 2.84193,10.54802 2.50674,5.00863 11.62257,14.25142 19.19214,19.45941 18.81077,12.94215 50.43708,23.80984 78.7828,27.07197 12.41389,1.42864 36.08442,1.22835 48.69878,-0.41207 z m -62.09086,-19.62649 c -10.54142,-0.82158 -20.49585,-3.09343 -30.10792,-6.87139 -8.34113,-3.27842 -18.302,-9.06333 -21.53923,-12.5092 l -2.33222,-2.48254 3.43572,0.62553 c 6.88946,1.25432 10.7626,2.25823 28.07714,7.27754 9.70277,2.81274 24.92252,6.64793 33.82166,8.52264 8.89914,1.87472 16.41424,3.64257 16.70024,3.92856 1.42343,1.42344 -16.6676,2.3964 -28.05539,1.50886 z m 189.68584,-28.2102 12.79377,-3.26215 -10.29377,-2.84372 c -5.66157,-1.56405 -10.80112,-3.0235 -11.42122,-3.24321 -0.64036,-0.2269 -1.43346,1.23162 -1.83573,3.37592 -0.38955,2.07648 -1.35625,5.02846 -2.14822,6.55997 -0.79198,1.5315 -1.0909,2.75998 -0.66427,2.72994 0.42662,-0.03 6.53287,-1.52257 13.56944,-3.31675 z m 91.20624,-9.65996 c 24.7189,-2.78749 40.92612,-11.70406 44.50445,-24.48457 4.77544,-17.0562 -9.7488,-38.19483 -31.72415,-46.17146 -18.34004,-6.65707 -49.58432,-9.3342 -79.90112,-6.84624 -30.19846,2.47826 -59.32657,8.05819 -74.1803,14.21038 -6.92403,2.86783 -6.86627,3.29736 1.01798,7.56983 16.98064,9.20181 29.58203,20.99748 35.39916,33.13579 1.86119,3.88364 3.38398,7.5611 3.38398,8.17212 0,1.59145 15.12295,6.06556 32,9.46716 26.02722,5.24583 51.05331,7.02718 69.5,4.94699 z m -70.5,-15.55201 c 0,-0.87083 0.53437,-1.40521 1.1875,-1.1875 1.85422,0.61807 2.16176,2.77083 0.39583,2.77083 -0.87083,0 -1.58333,-0.7125 -1.58333,-1.58333 z m -88.33786,-52.95882 c 2.38582,-1.39818 4.33476,-2.86068 4.33098,-3.25 -0.004,-0.38932 -6.39199,-0.81856 -14.19602,-0.95387 -7.80403,-0.13531 -13.76344,0.12938 -13.24312,0.58819 1.43024,1.26121 14.17676,5.57365 17.85816,6.04183 0.50168,0.0638 2.86418,-1.02797 5.25,-2.42615 z m 52.53265,-18.89336 c 26.75806,-2.91672 47.19374,-7.44044 65.42101,-14.48187 17.38992,-6.71794 33.3634,-18.94167 38.10832,-29.16246 8.01428,-17.26313 3.213,-36.92631 -11.84594,-48.51389 -12.82937,-9.87197 -25.09731,-13.33624 -50.02879,-14.1273 -18.67332,-0.5925 -28.05245,0.11083 -56.84939,4.26309 -51.5873,7.43843 -87.48784,14.98327 -126.22295,26.52694 -27.18689,8.10212 -40.86105,14.78161 -49.16223,24.01451 -8.07264,8.97872 -7.35896,17.37007 2.29034,26.92962 15.20793,15.06649 45.64414,22.62831 104.59484,25.98641 20.58617,1.17268 67.08577,0.37538 83.69479,-1.43505 z m -85.69479,-15.63679 c -17.76696,-1.79063 -36.5,-5.41437 -36.5,-7.06059 0,-1.10551 135.29131,-1.03458 138.37314,0.0726 2.42352,0.87063 -10.8397,3.40641 -31.66139,6.05331 -16.77047,2.1319 -53.48364,2.62066 -70.21175,0.93473 z m -10,-89.91955 c 22.77844,-1.58521 30.18851,-2.57041 105.5,-14.0266 41.1079,-6.25323 64.20037,-13.61677 74.72062,-23.82633 5.15887,-5.00652 6.23153,-9.37352 3.84033,-15.63478 -5.67509,-14.86 -29.21865,-22.52044 -69.21429,-22.52044 -17.771,0 -55.53284,2.12308 -81.34666,4.57353 -44.46622,4.2211 -71.03722,13.85597 -86.47004,31.3548 -5.96971,6.76888 -8.47971,12.18873 -8.508,18.37133 -0.055,12.01507 10.66327,19.77114 30.47804,22.05491 6.24752,0.72007 17.47876,0.59456 31,-0.34642 z m 83.69261,-89.02379 c 30.67771,-2.90915 48.56475,-16.16578 49.64821,-36.795783 0.61098,-11.63381 -3.32587,-19.29811 -13.51286,-26.30694 -9.96413,-6.8555 -27.37153,-9.51745 -45.16505,-6.90667 -37.62618,5.52076 -79.0166,31.53471 -79.14095,49.74024 -0.0281,4.118823 4.652,9.586203 10.88802,12.719503 14.20002,7.13481 47.42764,10.38078 77.28263,7.54965 z m -56.40028,-12.32823 c -5.1417,-1.44766 -12.79233,-6.26243 -12.79233,-8.050613 0,-1.49591 15.90557,-0.37494 26,1.832383 4.125,0.90201 10.65,2.0743 14.5,2.60509 3.85,0.53079 8.35,1.24896 10,1.59593 l 3,0.63085 -2.5,1.00962 c -4.05918,1.63928 -32.71972,1.92188 -38.20767,0.37674 z"
       id="path1"
       inkscape:export-filename="logo.svg"
       inkscape:export-xdpi="96"
       inkscape:export-ydpi="96" /></g></svg>
