<?xml version="1.0" encoding="UTF-8" standalone="no"?>
<!-- Created with Inkscape (http://www.inkscape.org/) -->

<svg
   width="77.784889mm"
   height="39.151386mm"
   viewBox="0 0 293.99014 147.97375"
   version="1.1"
   id="svg1"
   xml:space="preserve"
   inkscape:version="1.4.3 (0d15f75042, 2025-12-25)"
   sodipodi:docname="apachetaLogoDrawing.svg"
   xmlns:inkscape="http://www.inkscape.org/namespaces/inkscape"
   xmlns:sodipodi="http://sodipodi.sourceforge.net/DTD/sodipodi-0.dtd"
   xmlns="http://www.w3.org/2000/svg"
   xmlns:svg="http://www.w3.org/2000/svg"><sodipodi:namedview
     id="namedview1"
     pagecolor="#ffffff"
     bordercolor="#000000"
     borderopacity="0.25"
     inkscape:showpageshadow="2"
     inkscape:pageopacity="0.0"
     inkscape:pagecheckerboard="0"
     inkscape:deskcolor="#d1d1d1"
     inkscape:document-units="mm"
     inkscape:zoom="0.50646226"
     inkscape:cx="282.35075"
     inkscape:cy="418.58993"
     inkscape:window-width="1920"
     inkscape:window-height="1048"
     inkscape:window-x="0"
     inkscape:window-y="0"
     inkscape:window-maximized="1"
     inkscape:current-layer="layer1"><inkscape:page
       x="0"
       y="0"
       width="293.99014"
       height="147.97375"
       id="page2"
       margin="0"
       bleed="0" /></sodipodi:namedview><defs
     id="defs1" /><g
     inkscape:label="Layer 1"
     inkscape:groupmode="layer"
     id="layer1"
     transform="translate(399.94939,-1798.0776)"><path
       style="fill:#000000"
       d="m -333.98876,1945.4565 c -12.36037,-1.1882 -28.69082,-4.3369 -37.53117,-7.2366 -15.05044,-4.9365 -26.626,-13.7135 -28.04222,-21.2626 -1.04437,-5.5669 0.1083,-14.6285 2.44296,-19.2048 2.66923,-5.2321 12.09055,-15.4243 18.92407,-20.4726 8.12288,-6.0007 22.58201,-12.4894 34.20636,-15.3505 5.775,-1.4215 11.85,-2.9389 13.5,-3.3722 l 3,-0.7878 -3.53881,-1.5615 c -13.70997,-6.0492 -15.96351,-22.9536 -4.34033,-32.5579 5.62228,-4.6456 10.49096,-6.7412 23.40097,-10.0721 35.63884,-9.1953 77.20514,-15.3598 104.47817,-15.4947 18.46199,-0.091 25.41845,0.9461 34.29385,5.1143 6.92563,3.2524 16.05051,11.7842 19.75397,18.4699 2.62004,4.7298 2.95218,6.2858 2.95218,13.8295 0,6.4562 -0.47548,9.4592 -1.97753,12.4893 -2.09781,4.2321 -10.00589,12.9098 -12.52247,13.7413 -2.55147,0.843 -0.4781,1.8557 6.94421,3.3919 14.80692,3.0646 33.30225,12.7154 42.00632,21.9187 13.00161,13.7473 13.4587,29.6288 1.17221,40.7289 -5.19014,4.689 -10.10462,7.1576 -19.79953,9.9455 -10.92831,3.1426 -34.92119,3.1123 -69.32321,-0.087 l -25.5,-2.3718 -16.10878,3.5995 c -8.85982,1.9797 -20.55982,4.2893 -26,5.1323 -11.996,1.859 -49.22527,2.737 -62.39122,1.4714 z m 63.40352,-11.3894 c 14.10383,-2.2568 21.59999,-4.5649 22.99363,-7.08 0.60657,-1.0946 2.56535,-3.679 4.35285,-5.7431 2.79356,-3.2258 3.25,-4.5039 3.25,-9.1 0,-6.4097 -3.25724,-11.6022 -10.74838,-17.1344 -7.59222,-5.6068 -33.61427,-17.9618 -47.75162,-22.6719 -12.60536,-4.1997 -13.3491,-4.3249 -24.5,-4.1262 -33.21526,0.5921 -66.60889,20.4068 -68.71062,40.7705 l -0.57838,5.604 5.01725,4.836 c 7.09572,6.8393 23.18944,12.3799 45.27175,15.5857 13.5928,1.9733 56.74503,1.4049 71.40352,-0.9406 z m 136.95286,-5.9232 c 9.38883,-3.1231 16.32151,-9.111 18.62326,-16.0853 5.09843,-15.4485 -22.52728,-36.2822 -53.01444,-39.9805 -4.86521,-0.5902 -7.28481,-0.1166 -20,3.9141 -14.74949,4.6756 -45.57209,11.4843 -52.04853,11.4974 -1.97083,0 -3.87718,0.3011 -4.23633,0.6603 -0.35915,0.3591 1.17311,2.634 3.40502,5.0554 7.99716,8.6759 10.88251,19.3423 7.28373,26.9262 -0.897,1.8903 -1.41438,3.6534 -1.14973,3.918 0.26464,0.2647 12.81105,1.7875 27.88091,3.384 22.84567,2.4204 30.807,2.8549 47.89973,2.6143 15.58604,-0.2194 21.6641,-0.6758 25.35638,-1.9039 z m -86.943,-53.6458 c 32.47638,-5.8904 51.1672,-14.8975 59.13792,-28.4986 5.26802,-8.9892 3.72212,-18.5129 -4.35065,-26.8028 -9.11941,-9.3647 -18.2814,-12.0902 -40.70065,-12.1074 -32.22248,-0.025 -103.29626,12.1445 -119.65547,20.4875 -11.13938,5.681 -11.22599,17.6524 -0.16644,23.0063 4.22724,2.0463 5.26565,2.1388 14.68541,1.3079 16.86849,-1.488 46.88934,-0.7891 55.94703,1.3023 8.2191,1.8979 9.96673,3.9033 3.18947,3.6599 -28.43175,-1.0209 -36.18757,-1.0806 -43.03422,-0.3311 -4.41883,0.4838 -9.14295,1.2897 -10.49804,1.791 -2.16594,0.8012 -1.37595,1.2424 6.53422,3.6487 4.94893,1.5056 15.04404,4.9723 22.43358,7.7038 7.38955,2.7316 16.16455,5.596 19.5,6.3654 7.89017,1.8199 21.6337,1.2502 36.97784,-1.5329 z"
       id="path6"
       sodipodi:nodetypes="csssssscsssssssssssssscssccsssssssscssssssscssssssssssssssssssssss" /></g></svg>
