<?xml version="1.0" encoding="UTF-8" standalone="no"?>
<!-- Created with Inkscape (http://www.inkscape.org/) -->

<svg
   width="90.785828mm"
   height="74.975395mm"
   viewBox="0 0 343.12755 283.37158"
   version="1.1"
   id="svg1"
   xml:space="preserve"
   inkscape:version="1.4.3 (0d15f75042, 2025-12-25)"
   sodipodi:docname="apachetaLogoDrawing.svg"
   xmlns:inkscape="http://www.inkscape.org/namespaces/inkscape"
   xmlns:sodipodi="http://sodipodi.sourceforge.net/DTD/sodipodi-0.dtd"
   xmlns="http://www.w3.org/2000/svg"
   xmlns:svg="http://www.w3.org/2000/svg"><sodipodi:namedview
     id="namedview1"
     pagecolor="#ffffff"
     bordercolor="#000000"
     borderopacity="0.25"
     inkscape:showpageshadow="2"
     inkscape:pageopacity="0.0"
     inkscape:pagecheckerboard="0"
     inkscape:deskcolor="#d1d1d1"
     inkscape:document-units="mm"
     inkscape:zoom="0.50646226"
     inkscape:cx="282.35075"
     inkscape:cy="418.58993"
     inkscape:window-width="1920"
     inkscape:window-height="1048"
     inkscape:window-x="0"
     inkscape:window-y="0"
     inkscape:window-maximized="1"
     inkscape:current-layer="layer1"><inkscape:page
       x="0"
       y="0"
       width="343.12756"
       height="283.37158"
       id="page2"
       margin="0"
       bleed="0" /></sodipodi:namedview><defs
     id="defs1" /><g
     inkscape:label="Layer 1"
     inkscape:groupmode="layer"
     id="layer1"
     transform="translate(-394.79198,-1649.9455)"><path
       style="fill:#000000"
       d="m 488.02166,1933.1278 c -23.6853,-1.8752 -49.6211,-6.5385 -65.7742,-11.8264 -25.501,-8.348 -32.3315,-18.817 -24.2297,-37.1366 6.093,-13.7772 21.2658,-28.2321 39.0039,-37.1584 7.1301,-3.5881 19.8335,-7.7134 28.8924,-9.3825 3.5869,-0.661 6.3247,-1.5204 6.084,-1.91 -0.2407,-0.3895 -2.9444,-1.9346 -6.0081,-3.4335 -7.9473,-3.8883 -10.9834,-8.7415 -10.9223,-17.4594 0.033,-4.7531 0.652,-7.7263 2.238,-10.7557 6.3114,-12.0546 23.483,-23.2496 44.0273,-28.7033 l 8.6459,-2.2952 -5.9786,-2.2339 c -8.5082,-3.1791 -11.7435,-5.4281 -14.2667,-9.9176 -3.0103,-5.3561 -2.8832,-11.4235 0.3763,-17.9645 5.9262,-11.8923 20.0213,-18.8683 47.8272,-23.6709 4.9035,-0.8469 10.7535,-2.0526 13,-2.6792 l 4.0846,-1.1394 -4.508,-1.1893 c -6.4011,-1.6887 -12.5225,-5.8533 -15.7319,-10.7031 -2.4056,-3.6351 -2.7593,-5.1435 -2.7536,-11.7438 0.01,-9.9784 2.893,-16.1326 12.2386,-26.1132 10.8073,-11.5416 17.9302,-14.4275 38.4531,-15.5796 24.244,-1.3609 40.0164,4.7097 47.0774,18.1198 3.2473,6.167 3.0343,17.3953 -0.4553,24 -2.5746,4.8729 -6.8697,9.5638 -11.7141,12.7937 l -2.3938,1.596 2.3938,0.5233 c 1.3166,0.2879 5.9938,1.0351 10.3938,1.6605 15.6305,2.2219 26.6292,8.7133 31.1263,18.3709 5.5393,11.8957 0.4968,23.1096 -13.5457,30.1239 l -5.4193,2.707 5.4476,1.6855 c 14.3606,4.4432 26.7882,14.0222 32.0445,24.6993 2.7309,5.5472 3.2112,7.6366 3.2661,14.2091 0.056,6.7655 -0.3373,8.5214 -3.228,14.3933 -3.1917,6.4833 -4.053,7.4136 -18.1915,19.6498 l -3.5,3.029 5.59,0.029 c 10.7961,0.057 31.4691,6.7414 43.6467,14.1135 14.0345,8.4962 25.9525,20.48 30.49,30.6585 3.021,6.7766 2.8796,15.2643 -0.3624,21.7573 -3.1938,6.3966 -11.6876,13.3303 -20.6227,16.8349 -13.2521,5.1979 -23.0197,6.7627 -45.7416,7.3282 -18.7397,0.4663 -22.2917,0.286 -33,-1.6751 -18.8758,-3.4569 -18.8877,-3.4569 -35.5584,-0.039 -27.9344,5.7273 -32.7283,6.1638 -71.4416,6.5052 -19.8,0.1746 -38.25,0.1393 -41,-0.078 z m 57.5,-9.3942 c 27.0004,-1.8597 51.1427,-5.345 58.6007,-8.4598 2.3247,-0.9709 3.2616,-2.1368 3.7433,-4.6584 0.3533,-1.8498 0.9156,-4.5627 1.2496,-6.0285 0.524,-2.3006 -0.4439,-3.7889 -7.0763,-10.881 -4.2259,-4.5187 -11.4275,-11.4803 -16.0036,-15.4702 -18.2685,-15.9284 -26.7069,-19.9717 -60.5137,-28.9962 -28.5824,-7.6299 -29.1477,-7.7117 -41.0138,-5.9375 -24.4142,3.6505 -31.2144,5.5243 -45.0563,12.4152 -20.7276,10.319 -35.9299,27.368 -35.9299,40.2946 0,4.2423 0.4591,5.398 3.25,8.1805 12.5952,12.5572 87.3309,23.0828 138.75,19.5413 z m -60.0834,-11.3887 c -0.2291,-0.2239 -4.9166,-0.8866 -10.4166,-1.4727 -5.5,-0.5861 -16.075,-1.9767 -23.5,-3.0903 -7.425,-1.1137 -14.625,-2.0328 -16,-2.0426 -1.375,-0.01 -3.162,-0.4365 -3.9711,-0.9482 -6.4498,-4.079 20.6105,-2.6072 44.1278,2.4001 7.2719,1.5483 15.9184,5.439 12.2599,5.5166 -1.1458,0.024 -2.2708,-0.139 -2.5,-0.3629 z m 205.3349,4.9255 c 11.3328,-1.7083 23.6239,-5.569 29.0519,-9.1255 5.2458,-3.437 9.6966,-10.7004 9.6966,-15.8243 0,-13.1796 -20.0329,-31.5621 -43.3245,-39.7553 -14.2952,-5.0286 -21.2076,-6.2822 -34.6755,-6.2887 -10.35,-0.01 -14.9941,0.5405 -27,3.1713 -13.2469,2.9027 -34.9465,7.2006 -44.25,8.7645 -3.3789,0.5679 -5.4063,2.5397 -2.6114,2.5397 1.9018,0 14.5362,10.7326 29.84,25.3481 7.9751,7.6165 16.5299,15.0415 19.0108,16.5 l 4.5106,2.6519 24.5,-0.2679 c 31.6209,-0.3457 30.3797,0.6777 -6.3861,5.2656 -6.5374,0.8158 -12.3874,1.8944 -13,2.3969 -0.6127,0.5025 -2.2389,1.1015 -3.6139,1.331 l -2.5,0.4173 2.6966,1.1335 c 7.5377,3.1683 41.7762,4.1956 58.0549,1.7419 z m -108.4489,-68.9699 c 3.6835,-0.7983 14.1224,-2.8532 23.1974,-4.5664 27.134,-5.1223 40.0017,-9.8703 52.7779,-19.4744 9.7207,-7.3072 14.2221,-14.9789 14.2221,-24.239 0,-13.8622 -10.9251,-24.0653 -33.5,-31.2862 -8.8731,-2.8382 -31.683,-3.8307 -46.2482,-2.0125 -25.6388,3.2007 -60.1115,9.2572 -77.4639,13.6097 -30.8691,7.7427 -50.3829,19.9871 -52.4836,32.932 -1.531,9.4345 5.1655,14.2233 25.0952,17.9464 8.0729,1.5081 9.6056,1.5225 16.5,0.1551 9.3946,-1.8632 32.055,-5.1171 46.2261,-6.6379 12.9536,-1.3901 53.2278,-1.5687 57.3744,-0.2545 l 3,0.9508 -4.5,0.6644 c -2.475,0.3655 -13.275,1.3217 -24,2.125 -26.8494,2.0111 -58.9212,6.2763 -62.577,8.3222 -1.3114,0.7339 1.3487,1.7121 11.178,4.1106 7.0944,1.7311 16.274,4.0522 20.399,5.1581 15.2685,4.0934 21.2122,4.5752 30.8026,2.4966 z m -38.3026,-84.0736 c 15.1814,-2.6002 36.0384,-5.3836 48.5,-6.4724 6.875,-0.6007 13.175,-1.2797 14,-1.5089 0.825,-0.2292 6.1138,-0.8792 11.7529,-1.4445 14.0322,-1.4068 25.1324,-5.1696 30.2005,-10.2378 4.4302,-4.4301 5.6328,-8.1348 4.0212,-12.3875 -3.6513,-9.6358 -18.7207,-15.6239 -39.4746,-15.6861 -6.9576,-0.021 -15.4765,0.9455 -28,3.176 -9.9,1.7633 -23.175,4.0827 -29.5,5.1543 -34.2649,5.8054 -44.2063,8.8885 -53.6982,16.6537 -7.856,6.4267 -8.1241,15.8145 -0.5699,19.9552 4.9315,2.7031 8.0249,3.4289 18.2681,4.2858 9.2524,0.7741 12.415,0.5821 24.5,-1.4878 z m 42.0575,-56.054 c 7.839,-0.8169 19.0371,-4.8333 25.1203,-9.01 5.915,-4.0611 11.9097,-12.227 12.8465,-17.4992 1.11,-6.2472 -3.9428,-14.958 -10.7348,-18.5061 -9.2063,-4.8095 -32.3265,-6.0538 -43.4852,-2.3404 -9.2803,3.0883 -20.0843,10.6344 -24.501,17.1129 -7.21,10.5758 -7.4715,18.1787 -0.8317,24.1773 7.2173,6.5204 19.7205,8.3441 41.5859,6.0655 z"
       id="path8"
       sodipodi:nodetypes="sssssssssscssssscsscssssscsssscssssscssssssssssssssssssssssssssssssssssscssssscsssscsssssssssssssscsssssssssssssssssssssssssss" /></g></svg>
