<?xml version="1.0" encoding="UTF-8" standalone="no"?>
<!-- Created with Inkscape (http://www.inkscape.org/) -->

<svg
   width="104.20232mm"
   height="92.652451mm"
   viewBox="0 0 393.83557 350.18249"
   version="1.1"
   id="svg1"
   xml:space="preserve"
   inkscape:version="1.4.3 (0d15f75042, 2025-12-25)"
   sodipodi:docname="apachetaLogoDrawing.svg"
   xmlns:inkscape="http://www.inkscape.org/namespaces/inkscape"
   xmlns:sodipodi="http://sodipodi.sourceforge.net/DTD/sodipodi-0.dtd"
   xmlns="http://www.w3.org/2000/svg"
   xmlns:svg="http://www.w3.org/2000/svg"><sodipodi:namedview
     id="namedview1"
     pagecolor="#ffffff"
     bordercolor="#000000"
     borderopacity="0.25"
     inkscape:showpageshadow="2"
     inkscape:pageopacity="0.0"
     inkscape:pagecheckerboard="0"
     inkscape:deskcolor="#d1d1d1"
     inkscape:document-units="mm"
     inkscape:zoom="0.50646226"
     inkscape:cx="282.35075"
     inkscape:cy="418.58993"
     inkscape:window-width="1920"
     inkscape:window-height="1048"
     inkscape:window-x="0"
     inkscape:window-y="0"
     inkscape:window-maximized="1"
     inkscape:current-layer="layer1"><inkscape:page
       x="-5.5041511e-21"
       y="0"
       width="393.83557"
       height="350.1825"
       id="page2"
       margin="0"
       bleed="0" /></sodipodi:namedview><defs
     id="defs1" /><g
     inkscape:label="Layer 1"
     inkscape:groupmode="layer"
     id="layer1"
     transform="translate(-799.71139,-1578.186)"><path
       style="fill:#000000"
       d="m 882.5861,1927.4071 c -25.5992,-3.2116 -44.49998,-10.6974 -44.49998,-17.6245 0,-1.3482 -1.4138,-1.738 -7.75,-2.1369 -28.4511,-1.7911 -39.8199,-21.5395 -22.2726,-38.6891 5.5052,-5.3804 15.97,-12.2747 24.5074,-16.1457 9.1346,-4.1419 28.84428,-9.9144 34.32318,-10.0526 2.5806,-0.065 6.042,-0.4164 7.692,-0.7807 l 3,-0.6624 -5.6223,-3.6251 c -14.7436,-9.5064 -17.48618,-20.1043 -9.4242,-36.4166 9.232,-18.6798 32.7645,-36.541 54.0465,-41.0215 4.4,-0.9263 8.3675,-2.0048 8.8167,-2.3965 0.4491,-0.3917 -2.208,-1.78 -5.9047,-3.0851 -11.8824,-4.1948 -18.5431,-13.1685 -16.8182,-22.6586 2.5224,-13.8783 16.4014,-25.5078 37.2031,-31.1733 l 4.297,-1.1703 -4.797,-2.5326 c -6.3345,-3.3445 -8.8389,-5.7814 -11.4191,-11.1113 -4.2802,-8.8418 -0.6969,-20.0449 9.7798,-30.5762 7.5834,-7.623 15.6402,-12.014 27.8796,-15.1947 13.8749,-3.6056 13.4457,-3.3828 9.9628,-5.1727 -14.1002,-7.246 -16.6564,-23.7439 -5.8702,-37.8854 3.882,-5.0896 14.4852,-12.3457 22.0564,-15.0939 9.2559,-3.3597 24.6984,-4.9599 33.17,-3.4371 12.5942,2.2637 21.1231,8.1418 24.496,16.8826 2.0697,5.3638 2.0799,9.4057 0.041,16.2982 -1.3424,4.5379 -2.8643,6.6522 -9.25,12.8509 -4.2039,4.0807 -6.9156,7.1552 -6.026,6.8323 2.2239,-0.8073 20.8848,2.8917 26.3013,5.2135 5.8587,2.5113 12.4607,8.5835 14.7157,13.5348 2.164,4.7516 2.395,12.3047 0.5132,16.7822 -1.4835,3.53 -9.2012,11.1017 -13.1494,12.9006 -2.6543,1.2094 -3.3506,2.8172 -1.22,2.8172 0.703,0 4.5634,1.5744 8.5787,3.4987 9.1849,4.4017 18.1334,13.0722 21.8858,21.2058 3.9436,8.5481 3.8672,18.6051 -0.2024,26.6369 -1.6774,3.3105 -5.2128,7.9005 -8.1599,10.594 l -5.2002,4.7527 8.9975,2.8128 c 15.0167,4.6945 26.9989,14.0513 32.6009,25.4579 3.9032,7.9475 3.8733,17.5816 -0.075,24.299 -3.0028,5.1083 -9.4909,11.8648 -13.9533,14.5306 -3.394,2.0275 -3.4611,2.7166 -0.29,2.979 1.353,0.112 6.1905,1.5157 10.75,3.1193 33.7448,11.8685 65.3244,32.5168 73.8501,48.287 2.9756,5.5039 3.4176,7.2363 3.4003,13.3263 -0.056,19.647 -17.3103,29.76 -61.5064,36.0491 -15.4893,2.2041 -68.4516,3.0969 -90.24,1.5211 -24.5714,-1.7771 -68.7931,-9.3259 -80.1406,-13.6804 -0.8366,-0.321 -1.5293,0.6395 -1.9392,2.689 -1.4542,7.271 -12.5953,13.0889 -30.2692,15.8066 -11.9858,1.843 -34.8123,2.1572 -46.865,0.6451 z m 41.9114,-9.0361 c 12.0441,-1.8154 19.544,-4.0863 23.2473,-7.0392 2.3637,-1.8848 2.5864,-2.4549 1.4795,-3.7886 -1.7782,-2.1426 -14.9551,-6.2857 -26.2909,-8.2664 -11.0257,-1.9266 -40.3344,-1.3928 -50.3473,0.9169 -12.3374,2.8459 -18.42368,4.9728 -20.47318,7.1544 l -2.1103,2.2463 5.2238,2.2473 c 15.12868,6.5081 48.52578,9.6561 69.27108,6.5293 z m 193.5886,-6.9505 c 38.7145,-2.8594 58.3602,-9.1162 64.9331,-20.68 5.5734,-9.8053 -0.28,-20.1841 -19.4331,-34.4576 -9.0206,-6.7224 -25.167,-15.3566 -40.5,-21.6572 -20.7043,-8.5077 -32.0102,-9.214 -67,-4.1857 -31.2711,4.4938 -34.2797,5.244 -51.0771,12.7364 -15.3672,6.8545 -40.9775,16.7002 -43.44,16.7002 -2.3405,0 -1.7561,1.863 1.9385,6.1793 7.4039,8.6497 6.9224,19.6455 -1.2061,27.5455 -2.4194,2.3514 -4.2451,4.3087 -4.0571,4.3495 0.188,0.041 1.2688,0.25 2.4018,0.4648 1.133,0.2147 6.0689,1.3252 10.9687,2.4676 44.1516,10.2949 97.647,14.1433 146.4713,10.5372 z m -272.74028,-14.0291 c 4.2678,-0.8166 12.14278,-2.5784 17.49998,-3.915 16.0828,-4.0125 26.3595,-4.9504 47.0096,-4.2903 11.4029,0.3645 21.078,1.1896 24.7307,2.109 3.3,0.8307 7.575,1.5164 9.5,1.524 4.9268,0.019 11.2891,-3.1354 13.9991,-6.9412 4.1893,-5.8834 3.3137,-10.5014 -3.1638,-16.6855 -3.1001,-2.9596 -4.4286,-3.3683 -18.8353,-5.7931 -15.7415,-2.6496 -23.2507,-4.3694 -41.9235,-9.6018 -12.222,-3.4249 -17.0614,-3.5838 -31.2441,-1.0262 -21.74318,3.921 -43.35258,14.3582 -51.31318,24.784 -7.1651,9.3837 -3.3047,16.3853 10.9808,19.9156 6.8664,1.6969 13.5995,1.6734 22.7597,-0.08 z M 958.2263,1850.493 c 10.0427,-2.5476 30.083,-9.7982 46.5617,-16.8461 9.6535,-4.1288 10.035,-4.4074 8.6218,-6.2951 -1.1051,-1.4762 -1.4226,-4.3752 -1.2569,-11.4752 0.122,-5.225 0.1568,-10.2575 0.077,-11.1833 -0.1739,-2.029 -16.9571,-16.3218 -26.4864,-22.5563 -9.3382,-6.1095 -21.352,-11.5827 -32.3325,-14.7301 -7.556,-2.1658 -10.4784,-2.5344 -16.5658,-2.089 -19.6146,1.4348 -34.8131,7.1428 -48.966,18.3895 -11.2809,8.9645 -17.6196,17.5388 -20.1278,27.2267 -2.5994,10.0399 0.5606,17.3858 9.1047,21.1652 5.8755,2.599 23.5787,5.3933 39.2295,6.192 10.5316,0.5375 23.01,1.7407 30.2211,2.9141 2.8453,0.463 3.1672,1.5364 0.6469,2.1575 -1.3024,0.3209 -9.793,0.4886 -18.868,0.3725 -22.3788,-0.2862 -30,-0.024 -30,1.0318 0,0.4899 1.4625,1.1249 3.25,1.4113 1.7875,0.2864 9.55,1.8826 17.25,3.5472 17.6873,3.8236 26.8896,4.0017 39.6402,0.7673 z m 78.3598,-26.7019 c 3.3,-0.4947 6.45,-0.9096 7,-0.9222 0.55,-0.013 0.325,-0.4591 -0.5,-0.9923 -2.0476,-1.3232 -21.7059,-1.2849 -22.5271,0.044 -0.3548,0.5741 -0.1038,1.696 0.5577,2.4932 1.2354,1.4885 1.4404,1.4802 15.4694,-0.6225 z m 57.3492,-10.07 c 9.9975,-4.1831 18.4077,-12.7235 20.2156,-20.5288 2.1415,-9.2458 -5.7869,-21.6909 -17.9483,-28.1728 -6.5757,-3.5049 -19.3582,-7.1429 -25.097,-7.1429 -2.0134,0 -7.9039,0.9313 -13.0901,2.0695 -5.1862,1.1383 -13.7044,2.9017 -18.9294,3.9189 -18.2035,3.5435 -47.0733,9.7515 -47.5457,10.224 -0.2617,0.2617 2.3415,2.6614 5.7849,5.3328 3.4434,2.6713 8.5108,6.856 11.2608,9.2992 3.9371,3.4979 10.2082,8.0236 16.3381,11.7908 0.186,0.1143 -0.8265,2.1952 -2.25,4.6242 -1.4235,2.429 -2.5881,4.7028 -2.5881,5.0528 0,1.2486 5.9934,3.7056 11.2032,4.5928 2.9132,0.4961 17.2218,0.8698 31.7968,0.8306 23.261,-0.063 27.0315,-0.2938 30.8492,-1.8911 z m -89.3492,-51.4566 c 13.2959,-2.6642 41.8846,-9.3476 53.5,-12.5071 4.125,-1.1221 9.603,-3.3791 12.1734,-5.0156 5.892,-3.7512 12.5071,-10.8778 14.5505,-15.6755 2.1749,-5.1063 1.8646,-12.9593 -0.7299,-18.479 -2.4662,-5.2465 -10.8269,-13.5669 -16.5674,-16.4876 -6.1954,-3.152 -17.2059,-6.2237 -22.282,-6.2161 -6.9789,0.011 -80.7383,14.7522 -97.6446,19.5156 -16.9823,4.7847 -31.207,13.1426 -35.0648,20.6026 -1.9997,3.867 -1.7837,9.7911 0.4931,13.5251 2.4887,4.0813 12.4626,8.9636 21.0717,10.3146 9.4457,1.4823 16.805,1.2779 32.5273,-0.9035 24.8482,-3.4475 60.6096,-5.2668 61.9179,-3.15 0.6724,1.088 -2.4873,1.6354 -20.9452,3.6281 -25.1466,2.7149 -49.5,6.8635 -49.5,8.4323 0,0.3754 2.8125,1.2349 6.25,1.91 3.4375,0.6752 8.95,1.8534 12.25,2.6183 6.8646,1.5912 11.1192,1.2702 28,-2.1122 z m -10.6738,-74.3408 c 47.7017,-9.512 59.155,-12.26 64.7401,-15.5331 13.2174,-7.7459 13.7625,-19.7665 1.1853,-26.1398 -5.5088,-2.7915 -20.1118,-6.3222 -26.2516,-6.3471 -2.2,-0.01 -9.8141,1.1031 -16.9202,2.4712 -7.1061,1.368 -19.7346,2.9433 -28.0633,3.5006 -16.6081,1.1114 -23.8421,2.6189 -31.7833,6.6235 -12.5394,6.3232 -21.0622,16.0837 -22.3335,25.5764 -0.9379,7.0036 4.086,12.7068 14.4576,16.4121 2.0035,0.7157 3.9672,1.3211 4.364,1.3452 0.3967,0.024 18.6689,-3.5349 40.6049,-7.909 z m 24.8659,-60.4453 c 18.0417,-5.841 28.229,-19.8527 22.2146,-30.5539 -3.9386,-7.0079 -11.7767,-10.0479 -25.9067,-10.0479 -9.7212,0 -16.2271,1.5915 -25.8577,6.3255 -18.0376,8.8664 -24.3266,25.4268 -12.5793,33.1239 8.0446,5.271 27.743,5.8099 42.1291,1.1524 z"
       id="path9"
       sodipodi:nodetypes="ssssssscssssssscssssssssssssssssssssscssssssssssssssssssssscssssssssssssscssssssssssssssssssscsssssssssssssssssssssssssssssssssssssssssssssssssssssssssscsssssssssssss" /></g></svg>
