<?xml version="1.0" encoding="UTF-8" standalone="no"?>
<!-- Created with Inkscape (http://www.inkscape.org/) -->

<svg
   width="85.878227mm"
   height="57.315819mm"
   viewBox="0 0 324.57914 216.62672"
   version="1.1"
   id="svg1"
   xml:space="preserve"
   inkscape:version="1.4.3 (0d15f75042, 2025-12-25)"
   sodipodi:docname="apachetaLogoDrawing.svg"
   xmlns:inkscape="http://www.inkscape.org/namespaces/inkscape"
   xmlns:sodipodi="http://sodipodi.sourceforge.net/DTD/sodipodi-0.dtd"
   xmlns="http://www.w3.org/2000/svg"
   xmlns:svg="http://www.w3.org/2000/svg"><sodipodi:namedview
     id="namedview1"
     pagecolor="#ffffff"
     bordercolor="#000000"
     borderopacity="0.25"
     inkscape:showpageshadow="2"
     inkscape:pageopacity="0.0"
     inkscape:pagecheckerboard="0"
     inkscape:deskcolor="#d1d1d1"
     inkscape:document-units="mm"
     inkscape:zoom="0.50646226"
     inkscape:cx="282.35075"
     inkscape:cy="418.58993"
     inkscape:window-width="1920"
     inkscape:window-height="1048"
     inkscape:window-x="0"
     inkscape:window-y="0"
     inkscape:window-maximized="1"
     inkscape:current-layer="layer1"><inkscape:page
       x="0"
       y="-2.2226963e-19"
       width="324.57913"
       height="216.62672"
       id="page2"
       margin="0"
       bleed="0" /></sodipodi:namedview><defs
     id="defs1" /><g
     inkscape:label="Layer 1"
     inkscape:groupmode="layer"
     id="layer1"
     transform="translate(10.456031,-1705.1016)"><path
       style="fill:#000000"
       d="m 71.266425,1920.8016 c -16.684907,-1.4552 -39.850108,-6.1108 -54.999998,-11.0537 -31.524081,-10.2852 -35.415571,-30.6425 -10.2975902,-53.869 11.3976002,-10.5393 26.8350902,-18.3436 44.5250012,-22.5091 l 7.7274,-1.8197 -4.91457,-2.8068 c -7.431641,-4.2444 -10.373911,-8.7147 -10.870671,-16.5162 -0.36592,-5.7466 -0.0542,-7.1387 2.90272,-12.9643 7.119331,-14.0263 24.387448,-23.8691 49.740188,-28.3521 7.918685,-1.4002 11.288645,-2.6089 9.187525,-3.2952 -12.082805,-3.9466 -18.600355,-9.0954 -20.797915,-16.4302 -4.05593,-13.5375 3.10206,-24.4744 19.219485,-29.3662 20.8424,-6.3259 72.1543,-15.1927 95.57843,-16.5161 20.37516,-1.1512 33.43011,2.6036 41.69384,11.9917 4.56361,5.1845 6.31521,10.1254 6.2842,17.7265 -0.0369,9.0363 -5.56111,17.6806 -14.29032,22.3614 -2.02824,1.0875 -3.68772,2.2429 -3.68772,2.5673 0,0.3245 2.5875,1.3942 5.75,2.377 13.86644,4.3095 27.26933,14.7601 32.17233,25.0855 3.50326,7.3777 4.01555,17.9239 1.15745,23.828 -2.63712,5.4475 -8.83212,12.632 -15.30218,17.7463 l -4.79824,3.7928 4.76032,0.6982 c 18.20929,2.6709 40.32486,11.8846 49.97221,20.8193 22.79133,21.1077 12.31009,46.6147 -21.45311,52.208 -10.12312,1.677 -33.63474,1.6487 -54.25878,-0.065 -15.75628,-1.3095 -20.46049,-0.8165 -37.19047,3.8976 -15.22568,4.2902 -42.28606,9.1783 -58.30953,10.5328 -13.87843,1.1732 -45.682275,1.1365 -59.500005,-0.069 z m 45.500005,-8.8795 c 22.43523,-1.3923 60.38518,-7.3614 69.9701,-11.0056 2.42536,-0.9221 2.52584,-1.1583 1.09959,-2.5845 -0.86333,-0.8634 -1.56969,-2.5781 -1.56969,-3.8106 0,-2.1565 7.71258,-13.4695 9.25,-13.5681 1.38722,-0.089 0.76556,5.1169 -0.95981,8.0378 -1.08939,1.8441 -1.36153,3.2378 -0.75,3.8407 2.24832,2.2164 41.26339,5.4184 65.45981,5.3722 18.91086,-0.036 28.26978,-1.3185 34.99299,-4.7952 4.28938,-2.2181 9.76339,-8.2354 11.05663,-12.154 1.59011,-4.8181 -0.40491,-12.5428 -4.42537,-17.1351 -9.25166,-10.5675 -34.01488,-20.3839 -55.13664,-21.8566 -8.87044,-0.6185 -9.25632,-0.5489 -24.5,4.42 -19.70871,6.4244 -27.93116,8.7908 -35.73761,10.2856 -3.4375,0.6582 -6.25,1.2826 -6.25,1.3877 0,0.105 2.025,2.3044 4.5,4.8874 4.84281,5.0542 5.87518,9.3984 3.12673,13.1572 -1.31459,1.7978 -1.40513,1.7739 -2.11829,-0.5589 -1.81685,-5.943 -8.60546,-10.3085 -19.14277,-12.31 -9.46597,-1.798 -32.10435,-7.6352 -45.86567,-11.8263 -29.174425,-8.8852 -44.299495,-12.7902 -49.500005,-12.78 -7.027487,0.014 -21.548037,3.0736 -30.404388,6.4072 -13.09082,4.9273 -24.84635,12.6895 -33.4122902,22.062 -6.74052001,7.3752 -8.41408,10.7101 -8.41408,16.767 0,4.1714 0.48236,5.4075 3.20732,8.219 8.30984,8.5735 43.7167602,17.0023 81.5234482,19.407 18.316135,1.165 17.442895,1.1616 33.999995,0.1341 z m 58.42639,-62.525 c 7.91534,-0.8863 41.20692,-10.7257 51.72335,-15.2869 20.53996,-8.9087 34.30857,-22.6445 34.3405,-34.2587 0.0351,-12.7647 -16.39485,-26.6763 -37.85311,-32.0511 -10.17178,-2.5478 -23.31018,-2.2939 -50.13713,0.9689 -9.625,1.1706 -23.125,2.8137 -30,3.6514 -6.875,0.8376 -17.675,2.3802 -24,3.4278 -6.325,1.0477 -13.75,2.1892 -16.5,2.5367 -9.351255,1.1817 -27.977525,6.6654 -34.785445,10.2411 -8.253947,4.3351 -14.931987,11.4122 -16.688387,17.6854 -3.10234,11.0805 3.45321,17.8165 21.071627,21.6518 8.40091,1.8288 21.84911,2.7105 23.71859,1.5551 0.38794,-0.2397 6.087785,-1.1802 12.666325,-2.09 21.67329,-2.9972 52.93433,-1.7648 67.76729,2.6716 5.98237,1.7892 4.55179,3.1755 -2.5,2.4225 -15.05543,-1.6075 -37.89056,-2.6748 -45.25,-2.1149 -14.29209,1.0873 -28.964925,2.5971 -30.499995,3.1384 -2.35982,0.8322 33.808335,11.5125 49.999995,14.7648 12.13297,2.4371 14.13869,2.518 26.92639,1.0861 z m -26.91644,-87.9929 c 46.10824,-3.7428 67.44533,-6.5283 75.08658,-9.8022 12.26364,-5.2543 17.74978,-15.1627 13.2865,-23.9965 -7.91348,-15.6625 -27.41556,-17.2732 -86.38303,-7.1345 -26.81623,4.6107 -43.67006,8.6947 -50.716705,12.2896 -12.17639,6.212 -12.36991,17.9697 -0.40296,24.4829 10.401555,5.6612 20.308735,6.5003 49.129615,4.1607 z"
       id="path7"
       sodipodi:nodetypes="sssscsssssssssssssssscsssssssssssssssssssssssssssssssssssssssssssssssssssssssssssss" /></g></svg>
